<svg xmlns="http://www.w3.org/2000/svg" viewBox="0 0 350 56.2"><style>.style0{fill: #615445;}.style1{fill: #E11A2C;}</style><path d="M21.2 34.7l.1-.5c-.9.1-1.8.1-2.7.1-.8 0-1.6-.1-2.5-.1l-.1.5c.9 0 1.9 0 1.9 1.3s-1.4 6.4-1.9 7.9c-.9 2.8-1.9 5.4-5.3 5.4-1.9 0-3.6-1.1-3.6-3.2 0-.9.3-1.8.5-2.7l1.4-5.4c.2-.5.6-2.3 1-2.7.4-.6 1.3-.6 2-.6v-.4c-1.1 0-2.3.1-3.5.1l-3.1-.1-.1.5c.6 0 2.1-.1 2.1.8 0 .4-.3 1.4-.4 1.8l-1.3 5.3c-.2 1-.7 2.3-.7 3.3 0 3 2.8 4.1 5.4 4.1 4.9 0 5.9-4.2 7-8.2l1.2-4.4c.4-1.6.7-2.8 2.6-2.8z" class="style0"/><path d="M28.3 49.1c-.3 0-.5-.4-.5-.7 0-.5.6-2.1.8-2.6l.4-1.1c.4-1 .8-2.4.8-3.5 0-1-.7-1.9-1.8-1.9-2 0-3.4 2.3-4.2 3.9l.1-.4c.1-.5.2-1.2.2-1.7 0-.9-.4-1.6-1.4-1.6-1.8 0-2.7 2.3-3.3 3.7l.5.2c.3-.7 1.4-3.1 2.3-3.1.4 0 .4.5.4.8 0 1.6-1.3 5.5-1.8 7.2l-.5 1.5h1.8v-1.2c.6-1.9 1.3-4 2.3-5.7.6-.9 1.9-3 3.2-3 .5 0 .8.4.8.8 0 .8-.6 2.1-.9 2.8l-.4 1.2c-.3.9-.9 2.3-.9 3.3s.6 1.7 1.6 1.7c1.7 0 2.8-2.1 3.4-3.4l-.5-.2c-.3.8-1.5 3-2.4 3z" class="style0"/><path d="M37.1 34.3c-.7 0-1.1.5-1.1 1.1s.5 1.1 1.1 1c.6 0 1.1-.4 1.1-1s-.5-1.1-1.1-1.1z" class="style0"/><path d="M35 49.3c-.3 0-.4-.2-.4-.4 0-.4.6-1.8.7-2.2l.8-1.9c.4-1 1.1-2.5 1.1-3.6 0-.8-.6-1.6-1.5-1.6-1.5 0-2.5 1.8-3.2 3l.5.3c.3-.7 1.5-2.6 2.2-2.6.3 0 .4.3.4.5 0 .5-.7 2.2-.9 2.8l-.6 1.5c-.3.9-1 2.2-1 3.2 0 .9.5 1.7 1.5 1.7 1.6 0 2.8-2.1 3.4-3.3l-.5-.2c-.3.7-1.6 2.8-2.5 2.8z" class="style0"/><path d="M48.5 39.6c-.6 0-.8.4-.8 1v.8l.3 1c0 1.6-.4 3.2-1.2 4.6-.6.9-1.6 2.3-2.8 2.3s-1.4-1.4-1.4-2.3c0-1.9.6-4.1 1.6-5.8.2-.2.6-.9.6-1.2 0-.2-.2-.4-.4-.4-.5 0-.6.5-.7.9-.1.4-.8.7-1.2.7-.3 0-.5-.2-.7-.4-.3-.3-.6-.5-1.1-.5-.9 0-1.5.7-1.5 1.6 0 .3.1.9.4.9.1 0 .1-.1.1-.2v-.2c0-.3.1-.7.5-.7s.9.4 1.5.4c.4 0 .9-.2 1.3-.4-.9 1.6-2.6 3.9-2.6 5.8 0 1.6 1.1 2.6 2.6 2.6 3.9 0 6.4-5.9 6.4-9.1 0-.6-.2-1.4-.9-1.4z" class="style0"/><path d="M53.2 49.6c-.8 0-1.2-.6-1.2-1.3 0-.8.2-1.5.4-2.2l.4-.2c1.9-.8 5.4-2.2 5.4-4.7 0-1-.7-1.6-1.7-1.6-3.3 0-6.1 4.8-6.1 7.8 0 1.6.9 2.7 2.6 2.7 1.9 0 3.2-1.6 4.2-3l-.4-.3c-.9 1.1-2 2.8-3.6 2.8zm3-9.5c.4 0 .7.3.7.8 0 2.1-2.6 3.8-4.2 4.5.4-1.4 1.8-5.3 3.5-5.3z" class="style0"/><path d="M67.1 40.7c0-.7-.7-1.1-1.3-1.1-1.7 0-2.8 2.5-3.3 3.8.1-.6.2-1.1.2-1.6 0-.9-.4-2.2-1.6-2.2-1.2 0-2.6 2.4-3 3.5l.4.2c.2-.6 1.5-3 2.1-3 .4 0 .4 1.1.4 1.3 0 1.2-.4 3.1-.7 4.3l-1.2 3.9h1.7l.8-2.2c.5-1.8 1.2-3.9 2.1-5.6.2-.4 1-1.7 1.5-1.7.2 0 .2.4.2.5 0 .5.4.8.8.8.5 0 .9-.4.9-.9z" class="style0"/><path d="M71.4 39.6c-1.7 0-3.3 1-3.3 2.6 0 2 2.7 3.7 2.7 5.4 0 1.2-1 1.8-2.1 1.8-.6 0-1.5-.2-1.5-.9l.1-.6c0-.4-.3-.7-.7-.7-.5 0-.6.5-.6.9 0 1.4 1.7 1.9 2.9 1.9 1.9 0 3.6-1 3.6-3.1 0-2.3-2.7-3.7-2.7-5.4 0-.8.8-1.4 1.6-1.4 1.7 0 .5 1.6 1.7 1.6.4 0 .6-.2.6-.6 0-1.1-1.4-1.5-2.3-1.5z" class="style0"/><path d="M79.1 34.3c-.7 0-1.1.5-1.1 1.1s.5 1.1 1.1 1c.6 0 1.1-.4 1.1-1s-.5-1.1-1.1-1.1z" class="style0"/><path d="M77 49.3c-.3 0-.4-.2-.4-.4 0-.4.6-1.8.7-2.2l.8-1.9c.4-1 1.1-2.5 1.1-3.6 0-.8-.6-1.6-1.5-1.6-1.5 0-2.5 1.8-3.2 3l.5.3c.3-.7 1.5-2.6 2.2-2.6.3 0 .4.3.4.5 0 .5-.7 2.2-.9 2.8l-.6 1.5c-.3.9-1 2.2-1 3.2 0 .9.5 1.7 1.5 1.7 1.6 0 2.8-2.1 3.4-3.3l-.5-.2c-.3.7-1.6 2.8-2.5 2.8z" class="style0"/><path d="M86.1 46.2c-.4.8-1.4 3.1-2.4 3.1-.4 0-.4-.3-.4-.6 0-.8 1.6-6.5 2-7.7l.2-.6h1.8l.2-.5h-1.8l1-3.3v-.1h-1.6l-1.1 3.3h-2l-.2.5h1.9l-1.3 4.7c-.3.9-.8 2.4-.8 3.4 0 .9.7 1.6 1.6 1.6 1.8 0 2.7-2.2 3.4-3.5l-.5-.3z" class="style0"/><path d="M94.3 39.6c-.4 0-.8.3-.8.7 0 .8 1.1 1 1.1 2.9s-.9 4.2-1.8 5.9c-.1-2-.3-4-.9-5.9-.3-1-1.2-3.6-2.4-3.6-1.4 0-1.8 2.4-1.8 3.4v1h.5c0-.3 0-.6.3-1.1 0-.4.1-2.1.7-2.1s1.4 2.7 1.5 3.2c.4 1.5.8 4.2.8 5.8 0 1.5-.6 2.7-1.6 3.8-.9.8-1.5.9-2.7.9-.6 0-1.4.1-1.4.9 0 .4.4.7.9.7 2.3 0 4.9-3.7 6-5.5 1.5-2.5 2.7-5.7 2.7-8.7 0-.7 0-2.3-1.1-2.3z" class="style0"/><path d="M109.9 49.5c-.9 0-3.2.3-3.2-1.2 0-.6.3-1.4.4-1.9l2.2-8.2c.2-.5.6-2.3 1-2.7.4-.6 1.3-.6 2-.6l.1-.5-3.6.1-3.1-.1-.1.5c.6 0 2.1-.1 2.1.8 0 .4-.3 1.4-.4 1.8l-2.6 9.5c-.5 1.7-.6 2.5-2.7 2.4l-.1.5 3.1-.1 10.1.1.9-3.8h-.5c-1.2 3-2.6 3.4-5.6 3.4z" class="style0"/><path d="M121.7 34.3c-.7 0-1.1.5-1.1 1.1s.4 1.1 1.1 1c.6 0 1.1-.4 1.1-1s-.5-1.1-1.1-1.1z" class="style0"/><path d="M119.6 49.3c-.3 0-.4-.2-.4-.4 0-.4.6-1.8.7-2.2l.8-1.9c.4-1 1.1-2.5 1.1-3.6 0-.8-.6-1.6-1.5-1.6-1.5 0-2.5 1.8-3.2 3l.5.3c.3-.7 1.5-2.6 2.2-2.6.3 0 .4.3.4.5 0 .5-.7 2.2-.9 2.8l-.6 1.5c-.3.9-1 2.2-1 3.2 0 .9.5 1.7 1.5 1.7 1.6 0 2.8-2.1 3.4-3.3l-.5-.2c-.3.7-1.6 2.8-2.5 2.8z" class="style0"/><path d="M130.5 39.6c-1.4 0-2.4 1.2-3.1 2.3l1.1-3.5 1.3-4.3-3.7.2-.1.5c.5 0 1.5 0 1.5.7 0 .3-.2.9-.3 1.2l-2.3 7.4c-.3.9-.8 2.6-.8 3.5 0 1.6 1 2.5 2.5 2.5 3.4 0 6.4-4.5 6.4-7.6 0-1.5-.9-2.9-2.5-2.9zm-3.7 10c-.7 0-1.1-.6-1.1-1.3 0-2 2.3-8.2 4.6-8.2.7 0 1.1.9 1.1 1.6 0 2.1-2.1 7.9-4.6 7.9z" class="style0"/><path d="M142.3 40.7c0-.7-.7-1.1-1.3-1.1-1.7 0-2.8 2.5-3.3 3.8.1-.6.2-1.1.2-1.6 0-.9-.4-2.2-1.6-2.2-1.2 0-2.6 2.4-3 3.5l.3.2c.2-.6 1.5-3 2.1-3 .4 0 .4 1.1.4 1.3 0 1.2-.4 3.1-.7 4.3l-1.2 3.9h1.7l.8-2.2c.6-1.8 1.3-3.9 2.2-5.6.2-.4 1-1.7 1.5-1.7.2 0 .2.4.2.5 0 .5.4.8.8.8.5 0 .9-.4.9-.9z" class="style0"/><path d="M149.7 49.4c-.3 0-.3-.4-.3-.6 0-1.4 1.2-4.9 1.6-6.1l1-2.8h-1.7l-.3 1.1c-.3-.8-.9-1.3-1.8-1.3-3.3 0-6.4 4.7-6.4 7.7 0 1.5 1.1 2.8 2.7 2.8s2.8-1.4 3.5-2.7c-.1.4-.2.8-.2 1.3 0 .8.5 1.3 1.4 1.3 1.8 0 2.6-2.3 3.3-3.7l-.5-.2c-.4.7-1.5 3.2-2.3 3.2zm-1.5-3.4c-.7 1.4-1.8 3.6-3.5 3.6-.9 0-1.2-.9-1.2-1.6 0-1.9 2.5-7.9 5-7.9.7 0 1.1.7 1.1 1.3 0 1.3-.8 3.4-1.4 4.6z" class="style0"/><path d="M162.1 40.7c0-.7-.7-1.1-1.3-1.1-1.7 0-2.8 2.5-3.3 3.8.1-.6.2-1.1.2-1.6 0-.9-.4-2.2-1.6-2.2-1.2 0-2.6 2.4-3 3.5l.4.2c.2-.6 1.5-3 2.1-3 .4 0 .4 1.1.4 1.3 0 1.2-.4 3.1-.7 4.3l-1.2 3.9h1.7l.8-2.2c.5-1.8 1.2-3.9 2.1-5.6.2-.4 1-1.7 1.5-1.7.2 0 .2.4.2.5 0 .5.4.8.8.8.5 0 .9-.4.9-.9z" class="style0"/><path d="M164 49.3c-.3 0-.4-.2-.4-.4 0-.4.6-1.8.7-2.2l.8-1.9c.4-1 1.1-2.5 1.1-3.6 0-.8-.6-1.6-1.5-1.6-1.5 0-2.5 1.8-3.2 3l.5.3c.3-.7 1.5-2.6 2.2-2.6.3 0 .4.3.4.5 0 .5-.7 2.2-.9 2.8l-.6 1.5c-.3.9-1 2.2-1 3.2 0 .9.5 1.7 1.5 1.7 1.6 0 2.8-2.1 3.4-3.3l-.5-.2c-.3.7-1.6 2.8-2.5 2.8z" class="style0"/><path d="M166.1 34.3c-.7 0-1.1.5-1.1 1.1s.5 1.1 1.1 1c.6 0 1.1-.4 1.1-1s-.5-1.1-1.1-1.1z" class="style0"/><path d="M170.8 49.6c-.8 0-1.2-.6-1.2-1.3 0-.8.2-1.5.4-2.2l.4-.2c1.9-.8 5.4-2.2 5.4-4.7 0-1-.7-1.6-1.7-1.6-3.3 0-6.1 4.8-6.1 7.8 0 1.6.9 2.7 2.6 2.7 1.9 0 3.2-1.6 4.2-3l-.4-.3c-.9 1.1-2 2.8-3.6 2.8zm3-9.5c.4 0 .7.3.7.8 0 2.1-2.5 3.8-4.2 4.5.4-1.4 1.8-5.3 3.5-5.3z" class="style0"/><path d="M181 39.6c-1.7 0-3.3 1-3.3 2.6 0 2 2.7 3.7 2.7 5.4 0 1.2-1 1.8-2.1 1.8-.6 0-1.5-.2-1.5-.9l.1-.6c0-.4-.3-.7-.7-.7-.5 0-.6.5-.6.9 0 1.4 1.7 1.9 2.9 1.9 1.9 0 3.6-1 3.6-3.1 0-2.3-2.7-3.7-2.7-5.4 0-.8.8-1.4 1.6-1.4 1.7 0 .5 1.6 1.7 1.6.4 0 .6-.2.6-.6 0-1.1-1.4-1.5-2.3-1.5z" class="style0"/><path d="M225.2.3h-8.4v.8c3.7.2 3.7 1.9 3.7 4.8v7.1c0 3.1 0 4.8-1 6.4-1.5 2.5-4.4 3.3-6.8 3.3-3.5 0-5.6-1.5-6.4-2.9-.9-1.6-.9-3.5-.9-7v-6.4c0-5.3.2-5.3 3.8-5.3v-.8h-10.5v.9h.6c3.3 0 3.3.4 3.3 5.3v6.2c0 4.1 0 5.8 1.2 7.6.9 1.4 3.2 3.6 8.2 3.6 4.4 0 7.3-1.8 8.6-4.2 1-1.7 1-3.3 1-6.5v-6.9c0-3.1 0-4.9 3.6-5.2v-.8z" class="style1"/><path d="M240 18.3v-5.4c0-2.4-1.2-4.8-4.6-4.8-2.2 0-3.8 1-5.7 3.1-.1-.8-.2-2.3-.5-3.1v.1h-.5c-.6.2-2.5.6-4 .8v.8c2.4 0 2.4.2 2.4 4.2v4.4c0 4 0 4.2-2.4 4.2v.8h7.4v-.8c-2.4 0-2.4-.2-2.4-4.2v-6c1.2-1.4 2.6-3.2 4.7-3.2 1.8 0 3 1.1 3 4.4v4.7c0 4 0 4.2-2.5 4.2v.8h7.5v-.8c-2.4 0-2.4-.2-2.4-4.2z" class="style1"/><path d="M249.2 19.8v-11.7h-.4c-1.6.5-3.8 1-4.9 1v.9c2.7 0 2.9 0 2.9 4v5.8c0 2.5-.3 2.8-2.2 2.8h-.6v.8h7.8v-.8h-.6c-1.8 0-2-.4-2-2.8z" class="style1"/><path d="M264.2 9.4c.7 0 1.8.2 1.8 1.3 0 .5-.3 1.3-.8 2.5l-3.6 8-4.3-9.6c-.4-.8-.4-1.1-.4-1.2 0-.9.9-.9 1.9-.9v-.8h-6.6v.8c1.4.1 1.7.6 2.7 2.7l5.2 11.8h1.1l4.7-10.5c1.2-2.5 1.8-3.9 3.3-4v-.8h-5v.7z" class="style1"/><path d="M283.1 14.4c-.1-3.5-2.2-6.2-6.4-6.2-4.4 0-7.4 3.5-7.4 8.1 0 4.7 3.4 7.8 7.5 7.8 3 0 5.2-1.5 6.1-3.9h-.8c-1 2-2.6 2.9-4.7 2.9-3.5 0-5-2.9-5-7.6l.1-1.1h10.6zm-6.4-5.5c3.2 0 3.7 3 3.7 4.7h-7.9c.2-2 1.3-4.6 4.2-4.7z" class="style1"/><path d="M295.9 8.1c-1.9 0-4.6 1.2-5.7 3.9 0-2.1-.3-3.3-.5-3.9l-.3.1c-.6.2-2.5.8-4.2 1v.8c2.5 0 2.5.1 2.5 4.2v4.2c0 4.1 0 4.2-2.5 4.2v.8h7.8v-.8h-.5c-2.2 0-2.2-.4-2.2-4.2h.1v-3.6c0-3.7 2.8-5.5 4.3-5.5.9 0 1.2.7 1.3 1.1.2.6.6 1.2 1.4 1.2.8 0 1.3-.6 1.3-1.3 0-.8-.9-2.2-2.8-2.2z" class="style1"/><path d="M305.7 14.5c-2.7-.9-4.1-1.6-4.1-3.3 0-1 .8-2.2 3.2-2.2 2.6 0 4.1 2.3 4.4 4h.7v-4.6h-.7c0 .1-.4 1-.7 1.3-.8-.8-2.1-1.5-3.8-1.5-3.3 0-4.7 2.2-4.7 4.1 0 2.6 1.5 3.6 4.9 4.9 2.3.9 4.2 1.7 4.2 3.5 0 .7-.3 2.6-3.4 2.6-3.3 0-4.6-2.4-5-4.2h-.7v4.7h.7c.1-.3.4-1.1.8-1.5.8.9 2.1 1.7 4.3 1.7 3.3 0 5.1-1.8 5.1-4.3 0-3-2.3-4.2-5.2-5.2z" class="style1"/><path d="M318.5 19.8v-11.7h-.4c-1.6.5-3.8 1-4.9 1v.9c2.7 0 2.9 0 2.9 4v5.8c0 2.5-.3 2.8-2.2 2.8h-.6v.8h7.8v-.8h-.6c-1.8 0-2-.4-2-2.8z" class="style1"/><path d="M329.4 22.7c-2.2 0-2.2-2.3-2.2-4.3v-8.9h4.4v-.8h-4.4v-4.6h-.6c-.5 3.5-2.5 4.5-4.1 4.6v.8h2.1v9.4c0 2.2.4 3.6 1.4 4.3.6.5 1.4.7 2.4.7.3 0 2.7 0 3.8-2.4l-.6-.3c-.3.5-.9 1.5-2.2 1.5z" class="style1"/><path d="M344.8 8.7v.8c.7 0 2 .2 2 1 0 .3-.2.8-.5 1.4l-3.7 8.7-4-8.6c-.3-.6-.7-1.5-.7-1.8 0-.6.9-.6 1.8-.7v-.8h-6.8v.9c1.8 0 2.1.6 2.9 2.4l5.6 11.6-1.4 3.5c-.5 1.3-.9 1.5-2.2 2.1-.7.3-1.9.9-1.9 2.1 0 .7.5 1.1 1.1 1.1 1.5 0 2.3-1.6 3.3-3.9l6.6-15.8c.9-2.2 1.3-3.1 3.1-3.2v-.8h-5.2z" class="style1"/><circle cx="247.7" cy="3.5" r="1.6" class="style1"/><circle cx="317" cy="3.5" r="1.6" class="style1"/><path d="M25.4.3h-8.8v.8c3.9 0 4.2 1.6 4.2 3.5v14l-13.8-18.3h-6.7v.8c3.3 0 3.6.3 3.6 5v12.7c0 2.1.1 3.7-3.9 3.9v.8h9.1v-.8c-3.8-.1-4.3-1.5-4.3-3.9v-16.5l16.3 21.7h.5v-19.1c0-2.2.2-3.5 3.8-3.8v-.8z" class="style1"/><path d="M32.9 8.2c-4.4 0-7.8 3.3-7.8 7.8 0 5.5 4 8 7.8 8 4 0 7.9-2.7 7.9-7.9 0-4.6-3.6-7.9-7.9-7.9zm0 15c-3.3 0-4.8-2.3-4.9-7.1 0-4 1.2-7.1 4.9-7.1 3.8 0 4.9 3.2 4.9 7.2 0 4.7-1.5 7-4.9 7z" class="style1"/><path d="M52.9 8.1c-1.9 0-4.6 1.2-5.7 3.9 0-2.1-.3-3.3-.5-3.9l-.3.1c-.6.2-2.5.8-4.2 1v.8c2.5 0 2.5.1 2.5 4.2v4.2c0 4.1 0 4.2-2.5 4.2v.8h7.8v-.8h-.5c-2.2 0-2.2-.4-2.2-4.2h.1v-3.6c0-3.7 2.8-5.5 4.3-5.5.9 0 1.2.7 1.3 1.1.2.6.6 1.2 1.4 1.2.8 0 1.3-.6 1.3-1.3 0-.8-.9-2.2-2.8-2.2z" class="style1"/><path d="M63.8 22.8c-2.2 0-2.2-2.3-2.2-4.3v-8.9h4.5v-.8h-4.5v-4.6h-.6c-.5 3.5-2.5 4.5-4.1 4.6v.8h2.1v9.4c0 2.2.4 3.6 1.4 4.3.6.5 1.4.7 2.4.7.3 0 2.7 0 3.8-2.4l-.6-.3c-.3.5-.9 1.5-2.2 1.5z" class="style1"/><path d="M83.3 18.4v-5.2c0-3.4-1.6-5.1-4.9-5.1-1.9 0-3.6 1.2-5.4 3.1v-11.2h-.3c-1.2.5-3.2.8-4.7.8v.8c2.4 0 2.4.8 2.4 3.4v13.4c0 4.1 0 4.2-2.6 4.2v.8h7.5v-.8c-2.3 0-2.3-.3-2.3-4.2v-5.9c1.2-1.5 2.8-3.2 4.5-3.2 2.2 0 3.2 1 3.2 4.4v4.7c0 4 0 4.2-2.5 4.2v.8h7.6v-.8c-2.5 0-2.5-.2-2.5-4.2z" class="style1"/><path d="M100.1 14.4c-.1-3.5-2.2-6.2-6.4-6.2-4.4 0-7.4 3.5-7.4 8.1 0 4.7 3.4 7.8 7.5 7.8 3 0 5.2-1.5 6.1-3.9h-.8c-1 2-2.6 2.9-4.7 2.9-3.5 0-5-2.9-5-7.6l.1-1.1h10.6zm-6.4-5.5c3.2 0 3.7 3 3.7 4.7h-7.9c.2-2 1.3-4.6 4.2-4.7z" class="style1"/><path d="M124.8 14.5c-2.7-.9-4.1-1.6-4.1-3.3 0-1 .8-2.2 3.2-2.2 2.6 0 4.1 2.3 4.4 4h.7v-4.6h-.7c0 .1-.4 1-.7 1.3-.8-.8-2.1-1.5-3.8-1.5-3.3 0-4.7 2.2-4.7 4.1 0 2.6 1.5 3.7 4.9 4.9 2.3.9 4.2 1.7 4.2 3.5 0 .7-.3 2.6-3.4 2.6-3.3 0-4.6-2.4-5-4.2h-.7999999999999999v4.7h.7c.1-.3.4-1.1.8-1.5.8.9 2.1 1.7 4.3 1.7 3.4 0 5.2-1.8 5.2-4.3 0-3-2.3-4.2-5.2-5.2z" class="style1"/><path d="M138.9 22.8c-2.2 0-2.2-2.3-2.2-4.3v-8.9h4.5v-.8h-4.5v-4.6h-.6c-.5 3.5-2.5 4.5-4.1 4.6v.8h2.1v9.4c0 2.2.4 3.6 1.4 4.3.6.5 1.4.7 2.4.7.3 0 2.7 0 3.8-2.4l-.6-.3c-.3.5-1 1.5-2.2 1.5z" class="style1"/><path d="M156.2 14.4c-.1-3.5-2.2-6.2-6.4-6.2-4.4 0-7.4 3.5-7.4 8.1 0 4.7 3.4 7.8 7.5 7.8 3 0 5.2-1.5 6.1-3.9h-.8c-1 2-2.6 2.9-4.7 2.9-3.5 0-5-2.9-5-7.6l.1-1.1h10.6zm-6.3-5.5c3.2 0 3.7 3 3.7 4.7h-7.9c.2-2 1.3-4.6 4.2-4.7z" class="style1"/><path d="M168.7 8.1c-1.9 0-4.6 1.2-5.7 3.9 0-2.1-.3-3.3-.5-3.9l-.3.1c-.6.2-2.5.8-4.2 1v.8c2.5 0 2.5.1 2.5 4.2v4.2c0 4.1 0 4.2-2.5 4.2v.8h7.8v-.8h-.5c-2.2 0-2.2-.4-2.2-4.2h.2v-3.6c0-3.7 2.8-5.5 4.3-5.5.9 0 1.2.7 1.3 1.1.2.6.6 1.2 1.4 1.2.7 0 1.2-.6 1.2-1.3 0-.8-.9-2.2-2.8-2.2z" class="style1"/><path d="M188 18.4v-5.4c0-2.4-1.2-4.8-4.6-4.8-2.2 0-3.8 1-5.7 3.1-.1-.8-.2-2.3-.5-3.1h-.5c-.6.2-2.5.6-4 .8v.9c2.4 0 2.4.2 2.4 4.2v4.4c0 4 0 4.2-2.4 4.2v.8h7.4v-.8c-2.4 0-2.4-.2-2.4-4.2v-6c1.2-1.4 2.6-3.2 4.7-3.2 1.8 0 3 1.1 3 4.4v4.7c0 4 0 4.2-2.5 4.2v.8h7.5v-.8c-2.4 0-2.4-.2-2.4-4.2z" class="style1"/><path d="M116.9 20.8c-.3 1.7-1 1.8-1.5 1.8-1.1 0-1.2-.8-1.2-3.3v-6c0-2.2-.3-5.1-5.4-5.1-3.7 0-5.9 1.9-5.9 3.3 0 .7.4 1.1 1 1.1 1 0 1.3-.7 1.5-1.5.3-1 .8-2.1 3.2-2.1 2.8 0 3.1 1.8 3.1 3.9v.9l-2.8 1c-5.2 1.8-6.8 3.8-6.8 5.9 0 2.1 1.7 3.1 3.8 3.1 1.8 0 3.6-.7 5.8-2.6.2.9.7 2.6 2.8 2.6 2 0 2.9-1.4 3-3.1l-.6.1zm-5.1-.4c-1.5 1.3-3.5 2.3-4.8 2.3-1.6 0-2.3-1.1-2.3-2.5 0-2 1.9-3.9 5-4.9l2.1-.7v5.8z" class="style1"/></svg>