<svg xmlns="http://www.w3.org/2000/svg" width="722.742" height="58.815" viewBox="7.291 1.748 722.742 58.815" enable-background="new 7.291 1.748 722.742 58.815"><g fill="#2A3F52"><path d="M11.502 16.959c0-8.425 5.616-11.467 13.338-11.467 7.801 0 13.7 5.1 15.9 12.169h3.278v-14.665h-3.744v5.774c-3.979-4.525-9.673-7.021-15.523-7.021-9.673 0-17.473 4.759-17.473 15.055 0 20.4 36 11.1 36 28.2 0 8.033-7.255 11.777-14.431 11.777-9.985 0-17.473-7.8-17.473-16.613h-3.772v19.109h3.744v-7.254h.156c3.9 5.5 10.1 8.5 17 8.502 9.205 0 18.955-4.914 18.955-15.211.004-20.814-35.957-13.014-35.957-28.355zM72.652 56.584c-7.722 0-14.898-5.461-14.898-14.898 0-9.985 7.177-15.055 14.665-15.055 5.929 0 10.4 3.5 11.9 9.127h3.197v-11.856h-3.51v4.056c-3.51-3.198-7.332-4.836-11.7-4.836-11.077 0-18.487 8.268-18.487 18.486 0 11.5 7.7 18.5 18 18.486 6.786 0 12.87-3.197 16.146-8.189l-2.73-2.186c-2.91 3.781-7.335 6.881-12.535 6.865zM131.779 37.241c0-8.19-1.326-14.119-12.48-14.119-4.836 0-10.219 2.652-13.807 7.566h-.156v-27.692h-10.218v3.511h6.318v49.298h-6.318v3.51h16.224v-3.51h-6.006v-20.515c1.949-4.212 7.8-8.659 13.962-8.659 6.084 0 8.6 2.4 8.6 10.3v18.877h-6.162v3.51h16.225v-3.51h-6.162v-18.567zM162.666 23.121c-11.077 0-19.267 8.113-19.267 18.643-.078 10.5 8.1 18.3 19.3 18.3s19.345-7.799 19.345-18.33-8.224-18.634-19.344-18.613zm.155 33.463c-8.892 0-15.522-5.85-15.522-14.82s6.631-15.133 15.367-15.133c8.892 0 15.4 6.2 15.4 15.133.044 8.936-6.466 14.836-15.266 14.82z"/><polygon points="198.5,3 187.9,3 187.9,6.5 194.6,6.5 194.6,55.8 187.9,55.8 187.9,55.8 187.9,59.3 205.1,59.3 205.1,55.8 198.5,55.8"/><path d="M243.786 30.3h-.156c-3.51-4.681-9.127-7.177-14.587-7.177-10.92 0-18.486 9.438-18.486 17.9 0 12.1 8.9 19 18.5 19.033 4.135 0 10.141-1.873 14.743-7.021v6.24h9.907v-3.51h-6.006v-28.351h6.006v-3.51h-9.907v6.396zm-14.743 26.284c-8.97 0-14.586-6.865-14.586-15.68 0-7.332 6.163-14.274 14.586-14.274 8.971 0 14.6 6.7 14.6 14.3-.013 9.77-6.743 15.67-14.643 15.654zM279.976 23.121c-3.821 0-7.176 2.184-8.736 4.992h-.154v-4.212h-10.219v3.51h6.396v28.394h-6.474v3.51h16.692v-3.51h-6.318v-17.006c0-4.991 2.262-12.168 7.956-12.168 3.666 0 4.6 1.6 4.6 4.135h3.9c.002-4.566-2.819-7.666-7.619-7.645zM342.688 1.748c-16.693 0-29.563 13.104-29.563 29.407 0 16.3 12.9 29.4 29.6 29.4s29.563-13.104 29.563-29.407-12.907-29.448-29.588-29.4zm.001 52.106c-10.375 0-22.153-7.801-22.153-22.699 0-14.898 11.777-22.699 22.152-22.699s22.154 7.8 22.2 22.699c-.046 14.945-11.788 22.745-22.188 22.699zM415.617 32.95c0-6.865-5.382-10.453-11.076-10.453-4.446 0-9.983 3.042-12.87 6.24v-5.46h-12.715v5.226h6.006v25.585h-6.006v5.227h18.643v-5.227h-5.928v-19.968c3.588-3.354 7.098-6.007 12.246-6.007 3.198 0 5 2.7 5 6.5v19.5h-6.162v5.227h18.408v-5.227h-5.538v-21.163zM465.771 43.557c0-11.857-7.643-21.061-18.953-21.061-10.453 0-19.033 8.19-19.033 19 0 10.8 8.6 18.6 18.6 18.643 8.348 0 16.694-4.368 18.644-11.232h-6.63c-2.107 3.588-6.475 5.928-11.936 5.9-5.539 0-11.311-4.211-11.935-11.231v-.001h31.243zm-19.032-15.755c6.317 0 12.3 4.8 12.3 10.531h-24.57c.647-5.833 6.131-10.533 12.231-10.531zM480.434 16.491c0-4.525 3.744-8.347 10.922-8.347 6.63 0 12.2 4.8 13.3 11.389h6.239v-16.537h-6.084v4.759c-4.212-4.135-8.189-6.007-14.117-6.007-9.36 0-17.316 4.759-17.316 14.977 0 21.4 33.9 11.9 33.9 27.7 0 6.396-6.084 9.75-11.935 9.75-8.346 0-14.353-5.851-15.756-13.963h-6.007v19.11h6.085v-4.681c5.692 4.4 10.1 5.9 17.2 5.929 9.438 0 17.473-6.864 17.473-16.614-.05-22.556-33.938-13.956-33.938-27.465zM559.293 43.557c0-11.857-7.643-21.061-18.954-21.061-10.453 0-19.033 8.19-19.033 19 0 10.8 8.6 18.6 18.6 18.643 8.347 0 16.694-4.368 18.643-11.232h-6.63c-2.106 3.588-6.474 5.928-11.935 5.9-5.539 0-11.312-4.211-11.936-11.231v-.001h31.245zm-19.033-15.755c6.318 0 12.3 4.8 12.3 10.531h-24.571c.648-5.833 6.111-10.533 12.311-10.531zM596.264 28.737h-.232c-2.496-3.588-7.645-6.24-12.247-6.24-11.154 0-17.862 8.191-17.862 18.7 0 10.5 6.7 18.9 17.9 18.877 4.602 0 9.751-2.573 12.247-6.239h.232v5.46h12.014v-5.227h-6.084v-25.565h6.084v-5.226h-12.014v5.46zm-11.855 26.053c-8.191 0-11.78-6.629-11.779-13.572 0-6.707 3.589-13.416 11.779-13.416 5.849 0 11.7 4.8 11.7 13.416 0 8.582-5.809 13.582-11.709 13.572zM628.399 30.375h-.156v-7.098h-12.324v5.226h6.006v25.585h-6.006v5.227h19.423v-5.227h-6.708v-12.324c0-9.126 2.574-12.559 13.65-13.339v-5.928c-6.162.003-11.284 2.103-13.884 7.878zM665.294 54.79c-6.866 0-11.311-5.303-11.311-13.572 0-7.487 4.758-13.416 11.153-13.416 4.836 0 9.1 3.2 10.4 7.878h4.993v-12.403h-5.329v3.899h-.156c-2.028-2.886-6.552-4.68-10.062-4.68-11.546 0-17.707 8.19-17.707 18.799 0 10.6 6.2 18.8 17.7 18.799 6.941 0 12.479-3.198 16.691-8.19l-3.978-3.588c-3.268 3.484-7.388 6.484-12.388 6.474zM724.339 54.088v-21.138c0-6.865-5.226-10.453-10.92-10.453-4.446 0-9.984 3.042-12.87 6.24v-25.741h-12.715v5.227h6.006v45.863h-6.006v5.229h18.643v-5.227h-5.928v-19.968c3.588-3.354 7.098-6.007 12.246-6.007 2.964 0 4.8 2 4.8 6.476v19.5h-6.006v5.227h18.408v-5.227h-5.658z"/></g></svg>