<svg xmlns="http://www.w3.org/2000/svg" xmlns:xlink="http://www.w3.org/1999/xlink" version="1.1" id="Layer_1" x="0px" y="0px" width="722.742px" height="58.815px" viewBox="7.291 1.748 722.742 58.815" enable-background="new 7.291 1.748 722.742 58.815" xml:space="preserve">
<g>
	<path fill="#2A3F52" d="M11.502 16.959c0-8.425 5.616-11.467 13.338-11.467c7.801 0 13.7 5.1 15.9 12.169h3.278V2.996h-3.744 V8.77c-3.979-4.525-9.673-7.021-15.523-7.021c-9.673 0-17.473 4.759-17.473 15.055c0 20.4 36 11.1 36 28.2 c0 8.033-7.255 11.777-14.431 11.777c-9.985 0-17.473-7.8-17.473-16.613H7.602v19.109h3.744v-7.254h0.156 c3.9 5.5 10.1 8.5 17 8.502c9.205 0 18.955-4.914 18.955-15.211C47.461 24.5 11.5 32.3 11.5 16.959z"/>
	<path fill="#2A3F52" d="M72.652 56.584c-7.722 0-14.898-5.461-14.898-14.898c0-9.985 7.177-15.055 14.665-15.055 c5.929 0 10.4 3.5 11.9 9.127h3.197V23.902h-3.51v4.056c-3.51-3.198-7.332-4.836-11.7-4.836 c-11.077 0-18.487 8.268-18.487 18.486c0 11.5 7.7 18.5 18 18.486c6.786 0 12.87-3.197 16.146-8.189l-2.73-2.186 C82.325 53.5 77.9 56.6 72.7 56.584z"/>
	<path fill="#2A3F52" d="M131.779 37.241c0-8.19-1.326-14.119-12.48-14.119c-4.836 0-10.219 2.652-13.807 7.566h-0.156V2.996H95.118 v3.511h6.318v49.298h-6.318v3.51h16.224v-3.51h-6.006V35.29c1.949-4.212 7.8-8.659 13.962-8.659c6.084 0 8.6 2.4 8.6 10.3 v18.877h-6.162v3.51h16.225v-3.51h-6.162V37.241z"/>
	<path fill="#2A3F52" d="M162.666 23.121c-11.077 0-19.267 8.113-19.267 18.643c-0.078 10.5 8.1 18.3 19.3 18.3 s19.345-7.799 19.345-18.33S173.82 23.1 162.7 23.121z M162.821 56.584c-8.892 0-15.522-5.85-15.522-14.82 s6.631-15.133 15.367-15.133c8.892 0 15.4 6.2 15.4 15.133C178.11 50.7 171.6 56.6 162.8 56.584z"/>
	<polygon fill="#2A3F52" points="198.5,3 187.9,3 187.9,6.5 194.6,6.5 194.6,55.8 187.9,55.8 187.9,55.8 187.9,59.3 205.1,59.3 205.1,55.8 198.5,55.8"/>
	<path fill="#2A3F52" d="M243.786 30.3h-0.156c-3.51-4.681-9.127-7.177-14.587-7.177c-10.92 0-18.486 9.438-18.486 17.9 c0 12.1 8.9 19 18.5 19.033c4.135 0 10.141-1.873 14.743-7.021v6.24h9.907v-3.51h-6.006V27.414h6.006v-3.51h-9.907V30.3z M229.043 56.584c-8.97 0-14.586-6.865-14.586-15.68c0-7.332 6.163-14.274 14.586-14.274c8.971 0 14.6 6.7 14.6 14.3 C243.63 50.7 236.9 56.6 229 56.584z"/>
	<path fill="#2A3F52" d="M279.976 23.121c-3.821 0-7.176 2.184-8.736 4.992h-0.154v-4.212h-10.219v3.51h6.396v28.394h-6.474v3.51 h16.692v-3.51h-6.318V38.799c0-4.991 2.262-12.168 7.956-12.168c3.666 0 4.6 1.6 4.6 4.135h3.9 C287.621 26.2 284.8 23.1 280 23.121z"/>
	<path fill="#2A3F52" d="M342.688 1.748c-16.693 0-29.563 13.104-29.563 29.407c0 16.3 12.9 29.4 29.6 29.4 s29.563-13.104 29.563-29.407S359.381 1.7 342.7 1.748z M342.689 53.854c-10.375 0-22.153-7.801-22.153-22.699 c0-14.898 11.777-22.699 22.152-22.699s22.154 7.8 22.2 22.699C364.842 46.1 353.1 53.9 342.7 53.854z"/>
	<path fill="#2A3F52" d="M415.617 32.95c0-6.865-5.382-10.453-11.076-10.453c-4.446 0-9.983 3.042-12.87 6.24v-5.46h-12.715v5.226 h6.006v25.585h-6.006v5.227h18.643v-5.227h-5.928V34.12c3.588-3.354 7.098-6.007 12.246-6.007c3.198 0 5 2.7 5 6.5 v19.5h-6.162v5.227h18.408v-5.227h-5.538V32.95z"/>
	<path fill="#2A3F52" d="M465.771 43.557c0-11.857-7.643-21.061-18.953-21.061c-10.453 0-19.033 8.19-19.033 19 c0 10.8 8.6 18.6 18.6 18.643c8.348 0 16.694-4.368 18.644-11.232h-6.63c-2.107 3.588-6.475 5.928-11.936 5.9 c-5.539 0-11.311-4.211-11.935-11.231v-0.001H465.771z M446.739 27.802c6.317 0 12.3 4.8 12.3 10.531h-24.57 C435.116 32.5 440.6 27.8 446.7 27.802z"/>
	<path fill="#2A3F52" d="M480.434 16.491c0-4.525 3.744-8.347 10.922-8.347c6.63 0 12.2 4.8 13.3 11.389h6.239V2.996h-6.084 v4.759c-4.212-4.135-8.189-6.007-14.117-6.007c-9.36 0-17.316 4.759-17.316 14.977c0 21.4 33.9 11.9 33.9 27.7 c0 6.396-6.084 9.75-11.935 9.75c-8.346 0-14.353-5.851-15.756-13.963h-6.007v19.11h6.085v-4.681 c5.692 4.4 10.1 5.9 17.2 5.929c9.438 0 17.473-6.864 17.473-16.614C514.288 21.4 480.4 30 480.4 16.491z"/>
	<path fill="#2A3F52" d="M559.293 43.557c0-11.857-7.643-21.061-18.954-21.061c-10.453 0-19.033 8.19-19.033 19 c0 10.8 8.6 18.6 18.6 18.643c8.347 0 16.694-4.368 18.643-11.232h-6.63c-2.106 3.588-6.474 5.928-11.935 5.9 c-5.539 0-11.312-4.211-11.936-11.231v-0.001H559.293z M540.26 27.802c6.318 0 12.3 4.8 12.3 10.531h-24.571 C528.637 32.5 534.1 27.8 540.3 27.802z"/>
	<path fill="#2A3F52" d="M596.264 28.737h-0.232c-2.496-3.588-7.645-6.24-12.247-6.24c-11.154 0-17.862 8.191-17.862 18.7 c0 10.5 6.7 18.9 17.9 18.877c4.602 0 9.751-2.573 12.247-6.239h0.232v5.46h12.014v-5.227h-6.084V28.503h6.084v-5.226 h-12.014V28.737z M584.409 54.79c-8.191 0-11.78-6.629-11.779-13.572c0-6.707 3.589-13.416 11.779-13.416 c5.849 0 11.7 4.8 11.7 13.416C596.109 49.8 590.3 54.8 584.4 54.79z"/>
	<path fill="#2A3F52" d="M628.399 30.375h-0.156v-7.098h-12.324v5.226h6.006v25.585h-6.006v5.227h19.423v-5.227h-6.708V41.764 c0-9.126 2.574-12.559 13.65-13.339v-5.928C636.122 22.5 631 24.6 628.4 30.375z"/>
	<path fill="#2A3F52" d="M665.294 54.79c-6.866 0-11.311-5.303-11.311-13.572c0-7.487 4.758-13.416 11.153-13.416 c4.836 0 9.1 3.2 10.4 7.878h4.993V23.277H675.2v3.899h-0.156c-2.028-2.886-6.552-4.68-10.062-4.68 c-11.546 0-17.707 8.19-17.707 18.799c0 10.6 6.2 18.8 17.7 18.799c6.941 0 12.479-3.198 16.691-8.19l-3.978-3.588 C674.42 51.8 670.3 54.8 665.3 54.79z"/>
	<path fill="#2A3F52" d="M724.339 54.088V32.95c0-6.865-5.226-10.453-10.92-10.453c-4.446 0-9.984 3.042-12.87 6.24V2.996h-12.715 v5.227h6.006v45.863h-6.006v5.228v0.001h18.643v-5.227h-5.928V34.12c3.588-3.354 7.098-6.007 12.246-6.007 c2.964 0 4.8 2 4.8 6.476v19.5h-6.006v5.227h18.408v-5.227H724.339z"/>
</g>
</svg>
