<svg xmlns="http://www.w3.org/2000/svg" viewBox="0 0 93 93"><defs><style>.cls-1,.cls-3,.cls-6{fill:none;stroke:#424c56;stroke-miterlimit:10;}.cls-2{fill:#424c56;}.cls-3{stroke-width:4.43px;}.cls-4{fill:#1e2a36;}.cls-5{fill:#fff;}.cls-6{stroke-width:2px;}</style></defs><title>Asset 2</title><g id="Layer_2" data-name="Layer 2"><g id="Layer_1-2" data-name="Layer 1"><circle class="cls-1" cx="46.5" cy="46.5" r="46"/><path class="cls-2" d="M68.44,77.53a3.85,3.85,0,1,0,5.44-5.44L56.56,54.78l-5.44,5.44Z"/><path class="cls-2" d="M31.48,49.26a17.06,17.06,0,0,1-17-16c0,.37-.06.73-.06,1.11a16.33,16.33,0,0,0,30,8.88A17,17,0,0,1,31.48,49.26Z"/><path class="cls-2" d="M29.63,19.55A18.18,18.18,0,0,1,46.88,32a16.32,16.32,0,0,0-27.7-9.16A18.08,18.08,0,0,1,29.63,19.55Z"/><line class="cls-3" x1="44.54" y1="48.2" x2="56.08" y2="59.74"/><rect class="cls-4" x="47.43" y="48.11" width="0.8" height="9.38" transform="translate(-23.33 49.28) rotate(-45)"/><polygon class="cls-5" points="44.79 49.2 44.23 49.76 50.86 56.4 51.43 55.83 44.79 49.2 44.79 49.2"/><path class="cls-5" d="M52.68,58.84a.37.37,0,0,0-.27.1c-.19.19-.11.58.18.86L70.07,77.28a.89.89,0,0,0,.59.28.37.37,0,0,0,.27-.1c.19-.19.11-.58-.18-.86L53.27,59.12a.89.89,0,0,0-.59-.28Z"/><rect class="cls-2" x="48.89" y="56.24" width="8.87" height="1.48" rx="0.74" ry="0.74" transform="translate(-24.67 54.39) rotate(-45)"/><rect class="cls-2" x="47.84" y="55.2" width="8.87" height="1.48" rx="0.74" ry="0.74" transform="translate(-24.24 53.35) rotate(-45)"/><rect class="cls-2" x="46.8" y="54.15" width="8.87" height="1.48" rx="0.74" ry="0.74" transform="translate(-23.81 52.3) rotate(-45)"/><circle class="cls-6" cx="30.74" cy="34.4" r="19.71"/></g></g></svg>