<svg xmlns="http://www.w3.org/2000/svg" viewBox="0 0 93 93"><defs><style>.cls-1{fill:#424c56;}</style></defs><title>Asset 1</title><g id="Layer_2" data-name="Layer 2"><g id="Layer_1-2" data-name="Layer 1"><path class="cls-1" d="M46.5,0A46.5,46.5,0,1,0,93,46.5,46.55,46.55,0,0,0,46.5,0Zm0,92A45.5,45.5,0,1,1,92,46.5,45.55,45.55,0,0,1,46.5,92Z"/><path class="cls-1" d="M57.47,22H37.55A7.53,7.53,0,0,0,30,29.53V43.17h2V29.53A5.53,5.53,0,0,1,37.55,24H57.47A5.54,5.54,0,0,1,63,29.53V63a5.54,5.54,0,0,1-5.53,5.53H37.55A5.53,5.53,0,0,1,32,63V48.87H30V63a7.53,7.53,0,0,0,7.52,7.53H57.47A7.54,7.54,0,0,0,65,63V29.53A7.54,7.54,0,0,0,57.47,22Z"/><polygon class="cls-1" points="32.03 46.87 43.88 46.87 43.88 47.87 43.88 48.87 43.88 56.55 51.14 46.27 43.88 36 43.88 43.17 43.88 44.17 43.88 45.17 32.03 45.17 30.03 45.17 26 45.17 26 46.87 30.03 46.87 32.03 46.87"/></g></g></svg>