<svg xmlns="http://www.w3.org/2000/svg" viewBox="0 0 93 93"><defs><style>.cls-1{fill:none;stroke:#424c56;stroke-miterlimit:10;}.cls-2{fill:#424c56;}</style></defs><title>Asset 3</title><g id="Layer_2" data-name="Layer 2"><g id="Layer_1-2" data-name="Layer 1"><circle class="cls-1" cx="46.5" cy="46.5" r="46"/><path class="cls-2" d="M48.44,43.42H47.28l-.4,3.63h-2.6V40.74H47.2c3.8,0,6.68-1.82,6.68-6.49,0-3.63-1.92-6.4-6.36-6.4-4.72,0-6.6,2.72-6.6,7.17h-3c0-5.9,2.6-10.17,9.48-10.17,6.72,0,9.52,4.13,9.52,9.4C56.92,41.47,51.68,43.42,48.44,43.42Zm-2.84,11c-1.48,0-2.48-.45-2.48-2.36s1-2.32,2.48-2.32S48,50.23,48,52.09,47,54.46,45.6,54.46Z"/><path class="cls-2" d="M53.8,64.35H38.45l-.22-.72A39.74,39.74,0,0,0,34,54.29c-.87-1.25-1.85-2.48-2.79-3.67-3.25-4.1-6.61-8.34-6.61-14.23a21.89,21.89,0,1,1,43.79,0c0,5.89-3.36,10.13-6.61,14.23C60.85,51.82,59.87,53,59,54.29a39.74,39.74,0,0,0-4.23,9.34l-.22.72Zm-13.86-2H53.06a39.11,39.11,0,0,1,4.28-9.19c.91-1.3,1.9-2.55,2.86-3.77,3.17-4,6.17-7.79,6.17-13a19.87,19.87,0,1,0-39.75,0c0,5.19,3,9,6.17,13,1,1.21,2,2.47,2.86,3.77A39.11,39.11,0,0,1,39.94,62.33Z"/><rect class="cls-2" x="38.42" y="66.37" width="16.17" height="2.36" rx="1.18" ry="1.18"/><rect class="cls-2" x="38.42" y="70.75" width="16.17" height="2.36" rx="1.18" ry="1.18"/><polygon class="cls-2" points="50.54 78.5 42.46 78.5 41.11 75.13 51.89 75.13 50.54 78.5"/></g></g></svg>