<svg xmlns="http://www.w3.org/2000/svg" viewBox="0 0 350 56.2"> <style>.style0{fill: #615445;}.style1{fill: #E11A2C;}</style> <path d="M21.2 34.7l0.1-0.5c-0.9 0.1-1.8 0.1-2.7 0.1c-0.8 0-1.6-0.1-2.5-0.1L16 34.7c0.9 0 1.9 0 1.9 1.3 c0 1.3-1.4 6.4-1.9 7.9c-0.9 2.8-1.9 5.4-5.3 5.4c-1.9 0-3.6-1.1-3.6-3.2c0-0.9 0.3-1.8 0.5-2.7L9 38c0.2-0.5 0.6-2.3 1-2.7 c0.4-0.6 1.3-0.6 2-0.6v-0.4c-1.1 0-2.3 0.1-3.5 0.1c-1 0-2.1-0.1-3.1-0.1l-0.1 0.5c0.6 0 2.1-0.1 2.1 0.8C7.4 36 7.1 37 7 37.4 l-1.3 5.3C5.5 43.7 5 45 5 46c0 3 2.8 4.1 5.4 4.1c4.9 0 5.9-4.2 7-8.2l1.2-4.4C19 35.9 19.3 34.7 21.2 34.7z" class="style0"/><path d="M28.3 49.1c-0.3 0-0.5-0.4-0.5-0.7c0-0.5 0.6-2.1 0.8-2.6l0.4-1.1c0.4-1 0.8-2.4 0.8-3.5 c0-1-0.7-1.9-1.8-1.9c-2 0-3.4 2.3-4.2 3.9l0.1-0.4c0.1-0.5 0.2-1.2 0.2-1.7c0-0.9-0.4-1.6-1.4-1.6c-1.8 0-2.7 2.3-3.3 3.7 l0.5 0.2c0.3-0.7 1.4-3.1 2.3-3.1c0.4 0 0.4 0.5 0.4 0.8c0 1.6-1.3 5.5-1.8 7.2l-0.5 1.5h1.8v-1.2c0.6-1.9 1.3-4 2.3-5.7 c0.6-0.9 1.9-3 3.2-3c0.5 0 0.8 0.4 0.8 0.8c0 0.8-0.6 2.1-0.9 2.8l-0.4 1.2c-0.3 0.9-0.9 2.3-0.9 3.3s0.6 1.7 1.6 1.7 c1.7 0 2.8-2.1 3.4-3.4l-0.5-0.2C30.4 46.9 29.2 49.1 28.3 49.1z" class="style0"/> <path d="M37.1 34.3c-0.7 0-1.1 0.5-1.1 1.1s0.5 1.1 1.1 1c0.6 0 1.1-0.4 1.1-1S37.7 34.3 37.1 34.3z" class="style0"/> <path d="M35 49.3c-0.3 0-0.4-0.2-0.4-0.4c0-0.4 0.6-1.8 0.7-2.2l0.8-1.9c0.4-1 1.1-2.5 1.1-3.6 c0-0.8-0.6-1.6-1.5-1.6c-1.5 0-2.5 1.8-3.2 3l0.5 0.3c0.3-0.7 1.5-2.6 2.2-2.6c0.3 0 0.4 0.3 0.4 0.5c0 0.5-0.7 2.2-0.9 2.8 l-0.6 1.5c-0.3 0.9-1 2.2-1 3.2c0 0.9 0.5 1.7 1.5 1.7c1.6 0 2.8-2.1 3.4-3.3l-0.5-0.2C37.2 47.2 35.9 49.3 35 49.3z" class="style0"/> <path d="M48.5 39.6c-0.6 0-0.8 0.4-0.8 1c0 0.3 0 0.5 0 0.8l0.3 1c0 1.6-0.4 3.2-1.2 4.6 c-0.6 0.9-1.6 2.3-2.8 2.3s-1.4-1.4-1.4-2.3c0-1.9 0.6-4.1 1.6-5.8c0.2-0.2 0.6-0.9 0.6-1.2c0-0.2-0.2-0.4-0.4-0.4 c-0.5 0-0.6 0.5-0.7 0.9c-0.1 0.4-0.8 0.7-1.2 0.7c-0.3 0-0.5-0.2-0.7-0.4c-0.3-0.3-0.6-0.5-1.1-0.5c-0.9 0-1.5 0.7-1.5 1.6 c0 0.3 0.1 0.9 0.4 0.9c0.1 0 0.1-0.1 0.1-0.2v-0.2c0-0.3 0.1-0.7 0.5-0.7c0.4 0 0.9 0.4 1.5 0.4c0.4 0 0.9-0.2 1.3-0.4 c-0.9 1.6-2.6 3.9-2.6 5.8c0 1.6 1.1 2.6 2.6 2.6c3.9 0 6.4-5.9 6.4-9.1C49.4 40.4 49.2 39.6 48.5 39.6z" class="style0"/> <path d="M53.2 49.6c-0.8 0-1.2-0.6-1.2-1.3c0-0.8 0.2-1.5 0.4-2.2l0.4-0.2c1.9-0.8 5.4-2.2 5.4-4.7 c0-1-0.7-1.6-1.7-1.6c-3.3 0-6.1 4.8-6.1 7.8c0 1.6 0.9 2.7 2.6 2.7c1.9 0 3.2-1.6 4.2-3l-0.4-0.3C55.9 47.9 54.8 49.6 53.2 49.6 z M56.2 40.1c0.4 0 0.7 0.3 0.7 0.8c0 2.1-2.6 3.8-4.2 4.5C53.1 44 54.5 40.1 56.2 40.1z" class="style0"/> <path d="M67.1 40.7c0-0.7-0.7-1.1-1.3-1.1c-1.7 0-2.8 2.5-3.3 3.8c0.1-0.6 0.2-1.1 0.2-1.6c0-0.9-0.4-2.2-1.6-2.2 c-1.2 0-2.6 2.4-3 3.5l0.4 0.2c0.2-0.6 1.5-3 2.1-3c0.4 0 0.4 1.1 0.4 1.3c0 1.2-0.4 3.1-0.7 4.3l-1.2 3.9h1.7l0.8-2.2 c0.5-1.8 1.2-3.9 2.1-5.6c0.2-0.4 1-1.7 1.5-1.7c0.2 0 0.2 0.4 0.2 0.5c0 0.5 0.4 0.8 0.8 0.8C66.7 41.6 67.1 41.2 67.1 40.7z" class="style0"/> <path d="M71.4 39.6c-1.7 0-3.3 1-3.3 2.6c0 2 2.7 3.7 2.7 5.4c0 1.2-1 1.8-2.1 1.8c-0.6 0-1.5-0.2-1.5-0.9 c0-0.2 0.1-0.4 0.1-0.6c0-0.4-0.3-0.7-0.7-0.7c-0.5 0-0.6 0.5-0.6 0.9c0 1.4 1.7 1.9 2.9 1.9c1.9 0 3.6-1 3.6-3.1 c0-2.3-2.7-3.7-2.7-5.4c0-0.8 0.8-1.4 1.6-1.4c1.7 0 0.5 1.6 1.7 1.6c0.4 0 0.6-0.2 0.6-0.6C73.7 40 72.3 39.6 71.4 39.6z" class="style0"/> <path d="M79.1 34.3c-0.7 0-1.1 0.5-1.1 1.1s0.5 1.1 1.1 1c0.6 0 1.1-0.4 1.1-1S79.7 34.3 79.1 34.3z" class="style0"/> <path d="M77 49.3c-0.3 0-0.4-0.2-0.4-0.4c0-0.4 0.6-1.8 0.7-2.2l0.8-1.9c0.4-1 1.1-2.5 1.1-3.6 c0-0.8-0.6-1.6-1.5-1.6c-1.5 0-2.5 1.8-3.2 3l0.5 0.3c0.3-0.7 1.5-2.6 2.2-2.6c0.3 0 0.4 0.3 0.4 0.5c0 0.5-0.7 2.2-0.9 2.8 l-0.6 1.5c-0.3 0.9-1 2.2-1 3.2c0 0.9 0.5 1.7 1.5 1.7c1.6 0 2.8-2.1 3.4-3.3l-0.5-0.2C79.2 47.2 77.9 49.3 77 49.3z" class="style0"/> <path d="M86.1 46.2c-0.4 0.8-1.4 3.1-2.4 3.1c-0.4 0-0.4-0.3-0.4-0.6c0-0.8 1.6-6.5 2-7.7l0.2-0.6h1.8l0.2-0.5 h-1.8l1-3.3v-0.1h-1.6L84 39.8h-2l-0.2 0.5h1.9L82.4 45c-0.3 0.9-0.8 2.4-0.8 3.4c0 0.9 0.7 1.6 1.6 1.6c1.8 0 2.7-2.2 3.4-3.5 L86.1 46.2z" class="style0"/> <path d="M94.3 39.6c-0.4 0-0.8 0.3-0.8 0.7c0 0.8 1.1 1 1.1 2.9s-0.9 4.2-1.8 5.9c-0.1-2-0.3-4-0.9-5.9 c-0.3-1-1.2-3.6-2.4-3.6c-1.4 0-1.8 2.4-1.8 3.4c0 0.3 0 0.6 0 1h0.5c0-0.3 0-0.6 0.3-1.1c0-0.4 0.1-2.1 0.7-2.1 c0.6 0 1.4 2.7 1.5 3.2c0.4 1.5 0.8 4.2 0.8 5.8c0 1.5-0.6 2.7-1.6 3.8c-0.9 0.8-1.5 0.9-2.7 0.9c-0.6 0-1.4 0.1-1.4 0.9 c0 0.4 0.4 0.7 0.9 0.7c2.3 0 4.9-3.7 6-5.5c1.5-2.5 2.7-5.7 2.7-8.7C95.4 41.2 95.4 39.6 94.3 39.6z" class="style0"/> <path d="M109.9 49.5c-0.9 0-3.2 0.3-3.2-1.2c0-0.6 0.3-1.4 0.4-1.9l2.2-8.2c0.2-0.5 0.6-2.3 1-2.7 c0.4-0.6 1.3-0.6 2-0.6l0.1-0.5c-1.2 0-2.4 0.1-3.6 0.1c-1 0-2.1-0.1-3.1-0.1l-0.1 0.5c0.6 0 2.1-0.1 2.1 0.8 c0 0.4-0.3 1.4-0.4 1.8l-2.6 9.5c-0.5 1.7-0.6 2.5-2.7 2.4l-0.1 0.5c1 0 2.1-0.1 3.1-0.1c3.4 0 6.7 0.1 10.1 0.1l0.9-3.8h-0.5 C114.3 49.1 112.9 49.5 109.9 49.5z" class="style0"/> <path d="M121.7 34.3c-0.7 0-1.1 0.5-1.1 1.1s0.4 1.1 1.1 1c0.6 0 1.1-0.4 1.1-1S122.3 34.3 121.7 34.3z" class="style0"/> <path d="M119.6 49.3c-0.3 0-0.4-0.2-0.4-0.4c0-0.4 0.6-1.8 0.7-2.2l0.8-1.9c0.4-1 1.1-2.5 1.1-3.6 c0-0.8-0.6-1.6-1.5-1.6c-1.5 0-2.5 1.8-3.2 3l0.5 0.3c0.3-0.7 1.5-2.6 2.2-2.6c0.3 0 0.4 0.3 0.4 0.5c0 0.5-0.7 2.2-0.9 2.8 l-0.6 1.5c-0.3 0.9-1 2.2-1 3.2c0 0.9 0.5 1.7 1.5 1.7c1.6 0 2.8-2.1 3.4-3.3l-0.5-0.2C121.8 47.2 120.5 49.3 119.6 49.3z" class="style0"/> <path d="M130.5 39.6c-1.4 0-2.4 1.2-3.1 2.3l1.1-3.5l1.3-4.3l-3.7 0.2l-0.1 0.5c0.5 0 1.5 0 1.5 0.7 c0 0.3-0.2 0.9-0.3 1.2l-2.3 7.4c-0.3 0.9-0.8 2.6-0.8 3.5c0 1.6 1 2.5 2.5 2.5c3.4 0 6.4-4.5 6.4-7.6 C133 41 132.1 39.6 130.5 39.6z M126.8 49.6c-0.7 0-1.1-0.6-1.1-1.3c0-2 2.3-8.2 4.6-8.2c0.7 0 1.1 0.9 1.1 1.6 C131.4 43.8 129.3 49.6 126.8 49.6z" class="style0"/> <path d="M142.3 40.7c0-0.7-0.7-1.1-1.3-1.1c-1.7 0-2.8 2.5-3.3 3.8c0.1-0.6 0.2-1.1 0.2-1.6 c0-0.9-0.4-2.2-1.6-2.2c-1.2 0-2.6 2.4-3 3.5l0.3 0.2c0.2-0.6 1.5-3 2.1-3c0.4 0 0.4 1.1 0.4 1.3c0 1.2-0.4 3.1-0.7 4.3l-1.2 3.9 h1.7l0.8-2.2c0.6-1.8 1.3-3.9 2.2-5.6c0.2-0.4 1-1.7 1.5-1.7c0.2 0 0.2 0.4 0.2 0.5c0 0.5 0.4 0.8 0.8 0.8 C141.9 41.6 142.3 41.2 142.3 40.7z" class="style0"/> <path d="M149.7 49.4c-0.3 0-0.3-0.4-0.3-0.6c0-1.4 1.2-4.9 1.6-6.1l1-2.8h-1.7L150 41c-0.3-0.8-0.9-1.3-1.8-1.3 c-3.3 0-6.4 4.7-6.4 7.7c0 1.5 1.1 2.8 2.7 2.8s2.8-1.4 3.5-2.7c-0.1 0.4-0.2 0.8-0.2 1.3c0 0.8 0.5 1.3 1.4 1.3 c1.8 0 2.6-2.3 3.3-3.7l-0.5-0.2C151.6 46.9 150.5 49.4 149.7 49.4z M148.2 46c-0.7 1.4-1.8 3.6-3.5 3.6c-0.9 0-1.2-0.9-1.2-1.6 c0-1.9 2.5-7.9 5-7.9c0.7 0 1.1 0.7 1.1 1.3C149.6 42.7 148.8 44.8 148.2 46z" class="style0"/> <path d="M162.1 40.7c0-0.7-0.7-1.1-1.3-1.1c-1.7 0-2.8 2.5-3.3 3.8c0.1-0.6 0.2-1.1 0.2-1.6 c0-0.9-0.4-2.2-1.6-2.2c-1.2 0-2.6 2.4-3 3.5l0.4 0.2c0.2-0.6 1.5-3 2.1-3c0.4 0 0.4 1.1 0.4 1.3c0 1.2-0.4 3.1-0.7 4.3l-1.2 3.9 h1.7l0.8-2.2c0.5-1.8 1.2-3.9 2.1-5.6c0.2-0.4 1-1.7 1.5-1.7c0.2 0 0.2 0.4 0.2 0.5c0 0.5 0.4 0.8 0.8 0.8 C161.7 41.6 162.1 41.2 162.1 40.7z" class="style0"/> <path d="M164 49.3c-0.3 0-0.4-0.2-0.4-0.4c0-0.4 0.6-1.8 0.7-2.2l0.8-1.9c0.4-1 1.1-2.5 1.1-3.6 c0-0.8-0.6-1.6-1.5-1.6c-1.5 0-2.5 1.8-3.2 3l0.5 0.3c0.3-0.7 1.5-2.6 2.2-2.6c0.3 0 0.4 0.3 0.4 0.5c0 0.5-0.7 2.2-0.9 2.8 l-0.6 1.5c-0.3 0.9-1 2.2-1 3.2c0 0.9 0.5 1.7 1.5 1.7c1.6 0 2.8-2.1 3.4-3.3l-0.5-0.2C166.2 47.2 164.9 49.3 164 49.3z" class="style0"/> <path d="M166.1 34.3c-0.7 0-1.1 0.5-1.1 1.1s0.5 1.1 1.1 1c0.6 0 1.1-0.4 1.1-1S166.7 34.3 166.1 34.3z" class="style0"/> <path d="M170.8 49.6c-0.8 0-1.2-0.6-1.2-1.3c0-0.8 0.2-1.5 0.4-2.2l0.4-0.2c1.9-0.8 5.4-2.2 5.4-4.7 c0-1-0.7-1.6-1.7-1.6c-3.3 0-6.1 4.8-6.1 7.8c0 1.6 0.9 2.7 2.6 2.7c1.9 0 3.2-1.6 4.2-3l-0.4-0.3 C173.5 47.9 172.4 49.6 170.8 49.6z M173.8 40.1c0.4 0 0.7 0.3 0.7 0.8c0 2.1-2.5 3.8-4.2 4.5C170.7 44 172.1 40.1 173.8 40.1z" class="style0"/> <path d="M181 39.6c-1.7 0-3.3 1-3.3 2.6c0 2 2.7 3.7 2.7 5.4c0 1.2-1 1.8-2.1 1.8c-0.6 0-1.5-0.2-1.5-0.9 c0-0.2 0.1-0.4 0.1-0.6c0-0.4-0.3-0.7-0.7-0.7c-0.5 0-0.6 0.5-0.6 0.9c0 1.4 1.7 1.9 2.9 1.9c1.9 0 3.6-1 3.6-3.1 c0-2.3-2.7-3.7-2.7-5.4c0-0.8 0.8-1.4 1.6-1.4c1.7 0 0.5 1.6 1.7 1.6c0.4 0 0.6-0.2 0.6-0.6C183.3 40 181.9 39.6 181 39.6z" class="style0"/> <path d="M225.2 0.3h-8.4v0.8c3.7 0.2 3.7 1.9 3.7 4.8V13c0 3.1 0 4.8-1 6.4c-1.5 2.5-4.4 3.3-6.8 3.3 c-3.5 0-5.6-1.5-6.4-2.9c-0.9-1.6-0.9-3.5-0.9-7V6.4c0-5.3 0.2-5.3 3.8-5.3V0.3h-10.5v0.9h0.6c3.3 0 3.3 0.4 3.3 5.3v6.2 c0 4.1 0 5.8 1.2 7.6c0.9 1.4 3.2 3.6 8.2 3.6c4.4 0 7.3-1.8 8.6-4.2c1-1.7 1-3.3 1-6.5V6.3c0-3.1 0-4.9 3.6-5.2V0.3z" class="style1"/> <path d="M240 18.3v-5.4c0-2.4-1.2-4.8-4.6-4.8c-2.2 0-3.8 1-5.7 3.1c-0.1-0.8-0.2-2.3-0.5-3.1v0.1h-0.5 c-0.6 0.2-2.5 0.6-4 0.8v0.8c2.4 0 2.4 0.2 2.4 4.2v4.4c0 4 0 4.2-2.4 4.2v0.8h7.4v-0.8c-2.4 0-2.4-0.2-2.4-4.2v-6 c1.2-1.4 2.6-3.2 4.7-3.2c1.8 0 3 1.1 3 4.4v4.7c0 4 0 4.2-2.5 4.2v0.8h7.5v-0.8C240 22.5 240 22.3 240 18.3z" class="style1"/> <path d="M249.2 19.8V8.1h-0.4c-1.6 0.5-3.8 1-4.9 1V10c2.7 0 2.9 0 2.9 4v5.8c0 2.5-0.3 2.8-2.2 2.8H244v0.8h7.8 v-0.8h-0.6C249.4 22.6 249.2 22.2 249.2 19.8z" class="style1"/> <path d="M264.2 9.4c0.7 0 1.8 0.2 1.8 1.3c0 0.5-0.3 1.3-0.8 2.5l-3.6 8l-4.3-9.6c-0.4-0.8-0.4-1.1-0.4-1.2 c0-0.9 0.9-0.9 1.9-0.9V8.7h-6.6v0.8c1.4 0.1 1.7 0.6 2.7 2.7l5.2 11.8h1.1l4.7-10.5c1.2-2.5 1.8-3.9 3.3-4V8.7h-5V9.4z" class="style1"/> <path d="M283.1 14.4c-0.1-3.5-2.2-6.2-6.4-6.2c-4.4 0-7.4 3.5-7.4 8.1c0 4.7 3.4 7.8 7.5 7.8c3 0 5.2-1.5 6.1-3.9 h-0.8c-1 2-2.6 2.9-4.7 2.9c-3.5 0-5-2.9-5-7.6c0-0.3 0.1-0.8 0.1-1.1H283.1z M276.7 8.9c3.2 0 3.7 3 3.7 4.7h-7.9 C272.7 11.6 273.8 9 276.7 8.9z" class="style1"/> <path d="M295.9 8.1c-1.9 0-4.6 1.2-5.7 3.9c0-2.1-0.3-3.3-0.5-3.9l-0.3 0.1c-0.6 0.2-2.5 0.8-4.2 1V10 c2.5 0 2.5 0.1 2.5 4.2v4.2c0 4.1 0 4.2-2.5 4.2v0.8h7.8v-0.8h-0.5c-2.2 0-2.2-0.4-2.2-4.2h0.1v-3.6c0-3.7 2.8-5.5 4.3-5.5 c0.9 0 1.2 0.7 1.3 1.1c0.2 0.6 0.6 1.2 1.4 1.2c0.8 0 1.3-0.6 1.3-1.3C298.7 9.5 297.8 8.1 295.9 8.1z" class="style1"/> <path d="M305.7 14.5c-2.7-0.9-4.1-1.6-4.1-3.3c0-1 0.8-2.2 3.2-2.2c2.6 0 4.1 2.3 4.4 4h0.7V8.4h-0.7 c0 0.1-0.4 1-0.7 1.3c-0.8-0.8-2.1-1.5-3.8-1.5c-3.3 0-4.7 2.2-4.7 4.1c0 2.6 1.5 3.6 4.9 4.9c2.3 0.9 4.2 1.7 4.2 3.5 c0 0.7-0.3 2.6-3.4 2.6c-3.3 0-4.6-2.4-5-4.2H300v4.7h0.7c0.1-0.3 0.4-1.1 0.8-1.5c0.8 0.9 2.1 1.7 4.3 1.7 c3.3 0 5.1-1.8 5.1-4.3C310.9 16.7 308.6 15.5 305.7 14.5z" class="style1"/> <path d="M318.5 19.8V8.1h-0.4c-1.6 0.5-3.8 1-4.9 1V10c2.7 0 2.9 0 2.9 4v5.8c0 2.5-0.3 2.8-2.2 2.8h-0.6v0.8h7.8 v-0.8h-0.6C318.7 22.6 318.5 22.2 318.5 19.8z" class="style1"/> <path d="M329.4 22.7c-2.2 0-2.2-2.3-2.2-4.3V9.5h4.4V8.7h-4.4V4.1h-0.6c-0.5 3.5-2.5 4.5-4.1 4.6v0.8h2.1v9.4 c0 2.2 0.4 3.6 1.4 4.3c0.6 0.5 1.4 0.7 2.4 0.7c0.3 0 2.7 0 3.8-2.4l-0.6-0.3C331.3 21.7 330.7 22.7 329.4 22.7z" class="style1"/> <path d="M344.8 8.7v0.8c0.7 0 2 0.2 2 1c0 0.3-0.2 0.8-0.5 1.4l-3.7 8.7l-4-8.6c-0.3-0.6-0.7-1.5-0.7-1.8 c0-0.6 0.9-0.6 1.8-0.7V8.7h-6.8v0.9c1.8 0 2.1 0.6 2.9 2.4l5.6 11.6l-1.4 3.5c-0.5 1.3-0.9 1.5-2.2 2.1 c-0.7 0.3-1.9 0.9-1.9 2.1c0 0.7 0.5 1.1 1.1 1.1c1.5 0 2.3-1.6 3.3-3.9l6.6-15.8c0.9-2.2 1.3-3.1 3.1-3.2V8.7H344.8z" class="style1"/> <circle cx="247.7" cy="3.5" r="1.6" class="style1"/> <circle cx="317" cy="3.5" r="1.6" class="style1"/> <path d="M25.4 0.3h-8.8v0.8c3.9 0 4.2 1.6 4.2 3.5v14L7 0.3H0.3v0.8c3.3 0 3.6 0.3 3.6 5v12.7 c0 2.1 0.1 3.7-3.9 3.9v0.8h9.1v-0.8c-3.8-0.1-4.3-1.5-4.3-3.9V2.3L21.1 24h0.5V4.9c0-2.2 0.2-3.5 3.8-3.8V0.3z" class="style1"/> <path d="M32.9 8.2c-4.4 0-7.8 3.3-7.8 7.8c0 5.5 4 8 7.8 8c4 0 7.9-2.7 7.9-7.9C40.8 11.5 37.2 8.2 32.9 8.2z M32.9 23.2c-3.3 0-4.8-2.3-4.9-7.1c0-4 1.2-7.1 4.9-7.1c3.8 0 4.9 3.2 4.9 7.2C37.8 20.9 36.3 23.2 32.9 23.2z" class="style1"/> <path d="M52.9 8.1c-1.9 0-4.6 1.2-5.7 3.9c0-2.1-0.3-3.3-0.5-3.9l-0.3 0.1c-0.6 0.2-2.5 0.8-4.2 1V10 c2.5 0 2.5 0.1 2.5 4.2v4.2c0 4.1 0 4.2-2.5 4.2v0.8H50v-0.8h-0.5c-2.2 0-2.2-0.4-2.2-4.2h0.1v-3.6c0-3.7 2.8-5.5 4.3-5.5 c0.9 0 1.2 0.7 1.3 1.1c0.2 0.6 0.6 1.2 1.4 1.2c0.8 0 1.3-0.6 1.3-1.3C55.7 9.5 54.8 8.1 52.9 8.1z" class="style1"/> <path d="M63.8 22.8c-2.2 0-2.2-2.3-2.2-4.3V9.6h4.5V8.8h-4.5V4.2H61c-0.5 3.5-2.5 4.5-4.1 4.6v0.8H59V19 c0 2.2 0.4 3.6 1.4 4.3c0.6 0.5 1.4 0.7 2.4 0.7c0.3 0 2.7 0 3.8-2.4L66 21.3C65.7 21.8 65.1 22.8 63.8 22.8z" class="style1"/> <path d="M83.3 18.4v-5.2c0-3.4-1.6-5.1-4.9-5.1c-1.9 0-3.6 1.2-5.4 3.1V0h-0.3c-1.2 0.5-3.2 0.8-4.7 0.8v0.8 c2.4 0 2.4 0.8 2.4 3.4v13.4c0 4.1 0 4.2-2.6 4.2v0.8h7.5v-0.8c-2.3 0-2.3-0.3-2.3-4.2v-5.9c1.2-1.5 2.8-3.2 4.5-3.2 c2.2 0 3.2 1 3.2 4.4v4.7c0 4 0 4.2-2.5 4.2v0.8h7.6v-0.8C83.3 22.6 83.3 22.4 83.3 18.4z" class="style1"/> <path d="M100.1 14.4c-0.1-3.5-2.2-6.2-6.4-6.2c-4.4 0-7.4 3.5-7.4 8.1c0 4.7 3.4 7.8 7.5 7.8c3 0 5.2-1.5 6.1-3.9 h-0.8c-1 2-2.6 2.9-4.7 2.9c-3.5 0-5-2.9-5-7.6c0-0.3 0.1-0.8 0.1-1.1H100.1z M93.7 8.9c3.2 0 3.7 3 3.7 4.7h-7.9 C89.7 11.6 90.8 9 93.7 8.9z" class="style1"/> <path d="M124.8 14.5c-2.7-0.9-4.1-1.6-4.1-3.3c0-1 0.8-2.2 3.2-2.2c2.6 0 4.1 2.3 4.4 4h0.7V8.4h-0.7 c0 0.1-0.4 1-0.7 1.3c-0.8-0.8-2.1-1.5-3.8-1.5c-3.3 0-4.7 2.2-4.7 4.1c0 2.6 1.5 3.7 4.9 4.9c2.3 0.9 4.2 1.7 4.2 3.5 c0 0.7-0.3 2.6-3.4 2.6c-3.3 0-4.6-2.4-5-4.2h-0.7H119v4.7h0.7c0.1-0.3 0.4-1.1 0.8-1.5c0.8 0.9 2.1 1.7 4.3 1.7 c3.4 0 5.2-1.8 5.2-4.3C130 16.7 127.7 15.5 124.8 14.5z" class="style1"/> <path d="M138.9 22.8c-2.2 0-2.2-2.3-2.2-4.3V9.6h4.5V8.8h-4.5V4.2h-0.6c-0.5 3.5-2.5 4.5-4.1 4.6v0.8h2.1V19 c0 2.2 0.4 3.6 1.4 4.3c0.6 0.5 1.4 0.7 2.4 0.7c0.3 0 2.7 0 3.8-2.4l-0.6-0.3C140.8 21.8 140.1 22.8 138.9 22.8z" class="style1"/> <path d="M156.2 14.4c-0.1-3.5-2.2-6.2-6.4-6.2c-4.4 0-7.4 3.5-7.4 8.1c0 4.7 3.4 7.8 7.5 7.8c3 0 5.2-1.5 6.1-3.9 h-0.8c-1 2-2.6 2.9-4.7 2.9c-3.5 0-5-2.9-5-7.6c0-0.3 0.1-0.8 0.1-1.1H156.2z M149.9 8.9c3.2 0 3.7 3 3.7 4.7h-7.9 C145.9 11.6 147 9 149.9 8.9z" class="style1"/> <path d="M168.7 8.1c-1.9 0-4.6 1.2-5.7 3.9c0-2.1-0.3-3.3-0.5-3.9l-0.3 0.1c-0.6 0.2-2.5 0.8-4.2 1V10 c2.5 0 2.5 0.1 2.5 4.2v4.2c0 4.1 0 4.2-2.5 4.2v0.8h7.8v-0.8h-0.5c-2.2 0-2.2-0.4-2.2-4.2h0.2v-3.6c0-3.7 2.8-5.5 4.3-5.5 c0.9 0 1.2 0.7 1.3 1.1c0.2 0.6 0.6 1.2 1.4 1.2c0.7 0 1.2-0.6 1.2-1.3C171.5 9.5 170.6 8.1 168.7 8.1z" class="style1"/> <path d="M188 18.4V13c0-2.4-1.2-4.8-4.6-4.8c-2.2 0-3.8 1-5.7 3.1c-0.1-0.8-0.2-2.3-0.5-3.1h-0.5 c-0.6 0.2-2.5 0.6-4 0.8v0.9c2.4 0 2.4 0.2 2.4 4.2v4.4c0 4 0 4.2-2.4 4.2v0.8h7.4v-0.8c-2.4 0-2.4-0.2-2.4-4.2v-6 c1.2-1.4 2.6-3.2 4.7-3.2c1.8 0 3 1.1 3 4.4v4.7c0 4 0 4.2-2.5 4.2v0.8h7.5v-0.8C188 22.6 188 22.4 188 18.4z" class="style1"/> <path d="M116.9 20.8c-0.3 1.7-1 1.8-1.5 1.8c-1.1 0-1.2-0.8-1.2-3.3v-6c0-2.2-0.3-5.1-5.4-5.1 c-3.7 0-5.9 1.9-5.9 3.3c0 0.7 0.4 1.1 1 1.1c1 0 1.3-0.7 1.5-1.5c0.3-1 0.8-2.1 3.2-2.1c2.8 0 3.1 1.8 3.1 3.9v0.9l-2.8 1 c-5.2 1.8-6.8 3.8-6.8 5.9c0 2.1 1.7 3.1 3.8 3.1c1.8 0 3.6-0.7 5.8-2.6c0.2 0.9 0.7 2.6 2.8 2.6c2 0 2.9-1.4 3-3.1L116.9 20.8 L116.9 20.8z M111.8 20.4c-1.5 1.3-3.5 2.3-4.8 2.3c-1.6 0-2.3-1.1-2.3-2.5c0-2 1.9-3.9 5-4.9l2.1-0.7V20.4z" class="style1"/> </svg>