<?xml version="1.0"?>
<svg width="722.742" height="60.815000000000005" xmlns="http://www.w3.org/2000/svg" xmlns:svg="http://www.w3.org/2000/svg">
 <g>
  <title>Layer 1</title>
  <g id="svg_1" stroke="null">s
   <path fill="#2A3F52" d="m467.9635,15.75267c0,-4.47018 3.74018,-8.24589 10.91087,-8.24589c6.62325,0 12.18758,4.74186 13.28646,11.25105l6.23265,0l0,-16.33669l-6.07781,0l0,4.70135c-4.20771,-4.08491 -8.18066,-5.93423 -14.10262,-5.93423c-9.35047,0 -17.29837,4.70135 -17.29837,14.79558c0,21.14078 33.86548,11.75585 33.86548,27.36446c0,6.31853 -6.0778,9.6319 -11.92285,9.6319c-8.3375,0 -14.33838,-5.78013 -15.73995,-13.79386l-6.00089,0l0,18.87851l6.07881,0l0,-4.6243c5.6862,4.34671 10.08971,5.82854 17.18248,5.85718c9.42839,0 17.45521,-6.78085 17.45521,-16.41275c-0.04995,-22.28277 -33.90344,-13.78694 -33.90344,-27.13231l0.03396,0l0.00001,0z" id="svg_2" stroke="null"/>c
   <path fill="#2A3F52" d="m652.63526,53.58775c-6.85901,0 -11.29949,-5.23876 -11.29949,-13.4076c0,-7.39631 4.75316,-13.25349 11.14165,-13.25349c4.83107,0 9.09073,3.16124 10.38941,7.78257l4.98791,0l0,-12.25276l-5.32357,0l0,3.85177l-0.15584,0c-2.02594,-2.85104 -6.54533,-4.62331 -10.05176,-4.62331c-11.53424,0 -17.68897,8.0908 -17.68897,18.57129c0,10.4716 6.19369,18.57227 17.68198,18.57128c6.93393,0 12.46629,-3.15926 16.674,-8.09079l-3.97394,-3.54454c-3.26468,3.4418 -7.38048,6.40546 -12.37539,6.39558l-0.00599,0z" id="svg_3" stroke="null"/>h
   <path fill="#2A3F52" d="m711.62013,52.89425l0,-20.88195c0,-6.78184 -5.22068,-10.32638 -10.90888,-10.32638c-4.44147,0 -9.97383,3.00515 -12.85689,6.16442l0,-25.4292l-12.70206,0l0,5.16369l5.99989,0l0,45.30745l-5.99989,0l0,5.16467l0,0.00099l18.62402,0l0,-5.16369l-5.92196,0l0,-19.72612c3.58434,-3.31337 7.09077,-5.93424 12.23353,-5.93424c2.96098,0 4.79511,1.97578 4.79511,6.39756l0,19.26379l-5.99989,0l0,5.16369l18.38926,0l0,-5.16369l-5.65224,0l0,-0.00099z" id="svg_4" stroke="null"/>o
   <path fill="#2A3F52" d="m330.35776,1.18826c-16.676,0 -29.5329,12.94527 -29.5329,29.05079c0,16.10255 12.88687,29.04387 29.56986,29.04387s29.5329,-12.94527 29.5329,-29.05079s-12.89386,-29.09129 -29.55787,-29.04387l-0.01199,0zm0.001,51.47483c-10.36444,0 -22.13044,-7.70651 -22.13044,-22.42404c0,-14.71754 11.765,-22.42405 22.12944,-22.42405s22.13144,7.70552 22.17739,22.42405c-0.04595,14.76396 -11.77599,22.46948 -22.1654,22.42404l-0.01099,0z" id="svg_5" stroke="null"/>la
   <path fill="#2A3F52" d="m583.67555,27.85034l-0.23177,0c-2.49345,-3.54454 -7.63721,-6.16442 -12.23453,-6.16442c-11.14264,0 -17.84381,8.09178 -17.84381,18.47348c0,10.37282 6.69318,18.67106 17.88178,18.64834c4.59731,0 9.74107,-2.54183 12.23453,-6.16342l0.23176,0l0,5.39386l12.00177,0l0,-5.16369l-6.07781,0l0,-25.25532l6.07781,0l0,-5.1627l-12.00177,0l0,5.39386l-0.03796,0l0,0.00001zm-11.84293,25.73741c-8.18266,0 -11.76801,-6.5487 -11.76701,-13.4076c0,-6.62576 3.58535,-13.25349 11.76701,-13.25349c5.84304,0 11.68809,4.74186 11.68809,13.25349c0,8.47804 -5.80309,13.41748 -11.69708,13.4076l0.00899,0z" id="svg_7" stroke="null"/>r
   <path fill="#2A3F52" d="m615.77782,29.46849l-0.15584,0l0,-7.01202l-12.31145,0l0,5.1627l5.99989,0l0,25.27508l-5.99989,0l0,5.16369l19.40322,0l0,-5.16369l-6.70117,0l0,-12.17471c0,-9.01546 2.57138,-12.40687 13.63611,-13.17743l0,-5.85619c-6.15573,0.00296 -11.27252,2.07753 -13.86987,7.78257l-0.001,0z" id="svg_8" stroke="null"/>on
   <path fill="#2A3F52" d="m403.2125,32.0123c0,-6.78184 -5.37652,-10.32638 -11.06472,-10.32638c-4.44148,0 -9.97284,3.00515 -12.8569,6.16442l0,-5.39387l-12.70205,0l0,5.1627l5.99988,0l0,25.27508l-5.99988,0l0,5.16369l18.62401,0l0,-5.16369l-5.92196,0l0,-19.72612c3.58435,-3.31337 7.09077,-5.93424 12.23353,-5.93424c3.19474,0 4.99491,2.6673 4.99491,6.42127l0,19.26379l-6.15573,0l0,5.16368l18.38926,0l0,-5.16368l-5.53236,0l0,-20.90665l-0.00799,0z" id="svg_10" stroke="null"/>e
   <path fill="#2A3F52" d="m453.31543,42.49082c0,-11.71338 -7.63522,-20.80589 -18.9337,-20.80589c-10.44236,0 -19.01362,8.0908 -19.01362,18.76985c0,10.66918 8.59124,18.3747 18.58106,18.41718c8.3395,0 16.677,-4.31509 18.62501,-11.09595l-6.62325,0c-2.10485,3.54454 -6.4684,5.85619 -11.92384,5.82853c-5.53336,0 -11.29949,-4.15999 -11.92285,-11.09495l0,-0.00099l31.21119,0l0,-0.01778zm-19.01262,-15.56416c6.31056,0 12.28747,4.74186 12.28747,10.40344l-24.54498,0c0.64634,-5.76235 6.12476,-10.40541 12.21855,-10.40344l0.03895,0l0.00001,0z" id="svg_11" stroke="null"/>s
   <path fill="#2A3F52" d="m13.42681,15.48943c0,-4.47019 3.74019,-8.2459 10.91088,-8.2459c6.62325,0 12.18758,4.74186 13.28646,11.25105l6.23265,0l0,-16.33669l-6.07781,0l0,4.70136c-4.20771,-4.08492 -8.18066,-5.93424 -14.10262,-5.93424c-9.35047,0 -17.29837,4.70135 -17.29837,14.79558c0,21.14078 33.86548,11.75585 33.86548,27.36446c0,6.31853 -6.0778,9.6319 -11.92285,9.6319c-8.3375,0 -14.33838,-5.78013 -15.73995,-13.79386l-6.00089,0l0,18.87851l6.07881,0l0,-4.6243c5.6862,4.34671 10.08971,5.82854 17.18248,5.85719c9.42839,0 17.45521,-6.78086 17.45521,-16.41276c-0.04995,-22.28277 -33.90344,-13.78694 -33.90344,-27.13231l0.03396,0l0,0.00001z" id="svg_12" stroke="null"/>e
   <path fill="#2A3F52" d="m546.74219,42.49082c0,-11.71338 -7.63521,-20.80589 -18.93469,-20.80589c-10.44236,0 -19.01362,8.0908 -19.01362,18.76985c0,10.66918 8.59124,18.3747 18.58106,18.41718c8.3385,0 16.677,-4.31509 18.62401,-11.09595l-6.62325,0c-2.10385,3.54454 -6.4674,5.85619 -11.92284,5.82853c-5.53336,0 -11.30048,-4.15999 -11.92385,-11.09495l0,-0.00099l31.21318,0l0,-0.01778zm-19.01361,-15.56416c6.31156,0 12.28747,4.74186 12.28747,10.40344l-24.54598,0c0.64734,-5.76235 6.10478,-10.40541 12.29846,-10.40344l-0.03995,0z" id="svg_13" stroke="null"/>a
   <path fill="#2A3F52" d="m231.21548,27.85034l-0.23177,0c-2.49345,-3.54454 -7.63721,-6.16442 -12.23452,-6.16442c-11.14265,0 -17.84382,8.09178 -17.84382,18.47348c0,10.37282 6.69318,18.67106 17.88178,18.64834c4.59731,0 9.74107,-2.54183 12.23453,-6.16342l0.23176,0l0,5.39386l12.00177,0l0,-5.16369l-6.07781,0l0,-25.25532l6.07781,0l0,-5.1627l-12.00177,0l0,5.39386l-0.03796,0l0,0.00001zm-11.84293,25.73741c-8.18266,0 -11.768,-6.5487 -11.76701,-13.4076c0,-6.62576 3.58535,-13.25349 11.76701,-13.25349c5.84304,0 11.68809,4.74186 11.68809,13.25349c0,8.47804 -5.80309,13.41748 -11.69708,13.4076l0.00899,0z" id="svg_14" stroke="null"/>r
   <path fill="#2A3F52" d="m263.22625,28.48061l-0.15584,0l0,-7.01202l-12.31146,0l0,5.16269l5.99989,0l0,25.27509l-5.99989,0l0,5.16368l19.40323,0l0,-5.16368l-6.70117,0l0,-12.17472c0,-9.01546 2.57138,-12.40687 13.6361,-13.17742l0,-5.8562c-6.15573,0.00297 -11.27251,2.07753 -13.86986,7.78258l-0.001,0z" id="svg_15" stroke="null"/>c
   <path fill="#2A3F52" d="m70.59241,52.59986c-6.85901,0 -11.29948,-5.23876 -11.29948,-13.4076c0,-7.3963 4.75316,-13.25349 11.14164,-13.25349c4.83108,0 9.09074,3.16124 10.38941,7.78258l4.98792,0l0,-12.25276l-5.32357,0l0,3.85177l-0.15585,0c-2.02593,-2.85104 -6.54532,-4.62331 -10.05175,-4.62331c-11.53424,0 -17.68897,8.09079 -17.68897,18.57128c0,10.4716 6.19369,18.57227 17.68198,18.57129c6.93393,0 12.46629,-3.15927 16.674,-8.0908l-3.97395,-3.54454c-3.26467,3.4418 -7.38047,6.40546 -12.37538,6.39558l-0.006,0z" id="svg_16" stroke="null"/>h
   <path fill="#2A3F52" d="m128.21481,52.89425l0,-20.88195c0,-6.78184 -5.22068,-10.32638 -10.90888,-10.32638c-4.44147,0 -9.97383,3.00515 -12.8569,6.16442l0,-25.4292l-12.70205,0l0,5.16369l5.99989,0l0,45.30745l-5.99989,0l0,5.16467l0,0.00099l18.62402,0l0,-5.16369l-5.92197,0l0,-19.72612c3.58435,-3.31337 7.09078,-5.93424 12.23353,-5.93424c2.96099,0 4.79512,1.97578 4.79512,6.39756l0,19.26379l-5.99989,0l0,5.16369l18.38926,0l0,-5.16369l-5.65224,0l0,-0.00099z" id="svg_17" stroke="null"/>
   <circle fill-opacity="0" fill="#000000" stroke-width="6" stroke-dasharray="null" stroke-linejoin="null" stroke-linecap="null" cx="156.74086" cy="38.885525" r="16.696033" id="svg_18" stroke="#2a3f52"/>
   <g id="svg_26" stroke="null">
    <rect fill="#2a3f52" stroke-width="5" stroke-dasharray="null" stroke-linejoin="null" stroke-linecap="null" x="186.107906" y="4.048956" width="5.719365" height="53.371388" id="svg_20" stroke="null"/>
    <rect fill="#2A3F52" stroke-width="null" stroke-dasharray="null" stroke-linejoin="null" stroke-linecap="null" x="179.117576" y="2.747217" width="12.709689" height="5.857835" id="svg_22" stroke="null"/>
    <rect fill="#2A3F52" stroke-width="null" stroke-dasharray="null" stroke-linejoin="null" stroke-linecap="null" x="185.790121" y="51.44159" width="13.345175" height="5.857835" id="svg_24" stroke="null"/>
    <rect fill="#2A3F52" stroke-width="null" stroke-dasharray="null" stroke-linejoin="null" stroke-linecap="null" x="178.79979" y="51.44159" width="13.345175" height="5.857835" id="svg_25" stroke="null"/>
   </g></g>
 </g>
</svg>